<?xml version="1.0" encoding="utf-8"?>
<!-- Generator: Adobe Illustrator 23.0.0, SVG Export Plug-In . SVG Version: 6.00 Build 0)  -->
<svg version="1.1" id="图层_1" xmlns="http://www.w3.org/2000/svg" xmlns:xlink="http://www.w3.org/1999/xlink" x="0px" y="0px"
	 viewBox="0 0 1024 1024" style="enable-background:new 0 0 1024 1024;" xml:space="preserve">
<style type="text/css">
	.st0{fill-rule:evenodd;clip-rule:evenodd;}
</style>
<g id="图层_x0020_1">
	<g id="_1669714640016">
		<path class="st0" d="M958.5,512c0-246.5-200-446.5-446.5-446.5c-246.5,0-446.5,200-446.5,446.5c0,246.5,200,446.5,446.5,446.5
			c99.1,0,193.3-32.6,270.6-91.5c8.5-6.7,10.3-18.8,3.6-27.2c-6.7-8.5-18.8-10.3-27.2-3.6c-70.5,53.6-156.3,83.5-246.9,83.5
			C287,919.7,104.3,737,104.3,512S287,104.3,512,104.3S919.7,287,919.7,512c0,75.9-20.5,148.7-59.4,212.1c-5.8,8.9-2.7,21,6.3,26.8
			c8.9,5.8,21,2.7,26.8-6.3C935.7,675,958.5,595.1,958.5,512L958.5,512z"/>
		<path class="st0" d="M417.4,786c-22.9,0-41.5-18.6-41.5-41.5c0-11,4.4-21.6,12.2-29.4l91.7-91.7l0.4-0.3l215.5-215.5
			c7.8-7.8,18.3-12.2,29.4-12.2c22.9,0,41.5,18.6,41.5,41.5c0,11-4.4,21.6-12.2,29.4L567.6,653l56.8,58.5
			c7.5,7.7,11.8,18.1,11.8,28.9c0,22.6-18,41-40.6,41.5L418.4,786L417.4,786L417.4,786z M293.6,662.2c-22.9,0-41.5-18.6-41.5-41.5
			c0-11,4.4-21.6,12.2-29.4L447,408.6l-54.7-64.5c-6.4-7.5-9.9-17-9.9-26.9c0-22.6,18-41,40.6-41.5l177.3-4.1c0.3,0,0.6,0,1,0
			c22.9,0,41.5,18.6,41.5,41.5c0,11-4.4,21.6-12.2,29.4l-97.4,97.4l-0.6,0.6L323,650C315.2,657.8,304.7,662.2,293.6,662.2
			C293.7,662.2,293.7,662.2,293.6,662.2L293.6,662.2L293.6,662.2z"/>
	</g>
</g>
</svg>
